# Blender v2.82 (sub 7) OBJ File: 'trees4-va.blend'
# www.blender.org
mtllib trees-2.mtl
o Cylinder
v 0.000000 0.000000 -0.600000
v 0.000000 2.200000 -0.600000
v 0.570634 0.000000 -0.185410
v 0.570634 2.200000 -0.185410
v 0.352671 0.000000 0.485410
v 0.352671 2.200000 0.485410
v -0.352671 0.000000 0.485410
v -0.352671 2.200000 0.485410
v -0.570634 0.000000 -0.185410
v -0.570634 2.200000 -0.185410
v 0.570634 5.400000 -0.585410
v 0.000000 5.400000 -1.000000
v 0.352671 5.400000 0.085410
v -0.352671 5.400000 0.085410
v -0.570634 5.400000 -0.585410
v 0.570634 7.423515 -2.585410
v 0.000000 7.423515 -3.000000
v 0.352671 7.423515 -1.914590
v -0.352671 7.423515 -1.914590
v -0.570634 7.423515 -2.585410
v 0.570634 6.400000 1.414590
v 0.000000 6.400000 1.000000
v 0.352671 6.400000 2.085410
v -0.352671 6.400000 2.085410
v -0.570634 6.400000 1.414590
v 0.570634 7.400000 2.414590
v 0.000000 7.400000 2.000000
v 0.352671 7.400000 3.085410
v -0.352671 7.400000 3.085410
v -0.570634 7.400000 2.414590
v 0.570634 7.400000 2.414590
v 0.000000 7.400000 2.000000
v 0.352671 7.400000 3.085410
v -0.352671 7.400000 3.085410
v -0.570634 7.400000 2.414590
v 0.000000 9.934446 0.750041
v 2.406084 11.682547 -1.088056
v -0.919024 12.762958 -1.088056
v -2.974103 9.934446 -1.088056
v -0.919024 7.105935 -1.088056
v 2.406084 8.186344 -1.088056
v 0.919024 12.762958 -4.062176
v -2.406084 11.682549 -4.062176
v -2.406084 8.186345 -4.062176
v 0.919024 7.105935 -4.062176
v 2.974103 9.934446 -4.062176
v -0.000000 9.934446 -5.900273
v -1.789181 10.671186 7.716969
v -4.149850 10.526968 4.006670
v -2.288868 6.860931 5.574048
v 1.629511 7.939099 7.260446
v 2.190143 12.271530 6.735273
v -1.381692 13.870873 4.724341
v -2.190143 7.705723 1.257032
v 1.381692 6.106380 3.267964
v 4.149850 9.450285 3.985635
v 2.288868 13.116323 2.418257
v -1.629511 12.038156 0.731859
v 1.789181 9.306067 0.275336
vt 0.954783 0.535951
vt 0.954783 0.660733
vt 0.904870 0.660733
vt 0.904870 0.535951
vt 0.854957 0.660733
vt 0.854957 0.535951
vt 0.805043 0.660733
vt 0.805043 0.535951
vt 0.854957 0.660733
vt 0.805043 0.660733
vt 0.755130 0.660733
vt 0.755130 0.535951
vt 0.705217 0.660733
vt 0.705217 0.535951
vt 0.892391 0.533455
vt 0.949355 0.492068
vt 0.927597 0.425103
vt 0.857185 0.425103
vt 0.835427 0.492068
vt 0.705217 0.660733
vt 0.755130 0.660733
vt 0.755130 0.660733
vt 0.705217 0.660733
vt 0.904870 0.660733
vt 0.954783 0.660733
vt 0.824573 0.492068
vt 0.767609 0.533455
vt 0.710644 0.492068
vt 0.732403 0.425103
vt 0.802814 0.425103
vt 0.854957 0.660733
vt 0.805043 0.660733
vt 0.954783 0.660733
vt 0.904870 0.660733
vt 0.705217 0.660733
vt 0.755130 0.660733
vt 0.805043 0.660733
vt 0.854957 0.660733
vt 0.904870 0.660733
vt 0.954783 0.660733
vt 0.705217 0.660733
vt 0.755130 0.660733
vt 0.600000 1.000000
vt 0.400000 1.000000
vt 0.400000 1.000000
vt 0.600000 1.000000
vt 0.904870 0.660733
vt 0.954783 0.660733
vt 0.805043 0.660733
vt 0.854957 0.660733
vt 0.819549 0.574159
vt 0.791783 0.535942
vt 0.819549 0.497725
vt 0.864476 0.512323
vt 0.864476 0.559562
vt 0.597468 0.346801
vt 0.569620 0.395036
vt 0.625316 0.395036
vt 0.541772 0.346801
vt 0.513924 0.395036
vt 0.374683 0.346801
vt 0.346835 0.395036
vt 0.402531 0.395036
vt 0.430380 0.346801
vt 0.458228 0.395036
vt 0.486076 0.346801
vt 0.541772 0.443271
vt 0.597468 0.443271
vt 0.374683 0.443271
vt 0.430380 0.443271
vt 0.486076 0.443271
vt 0.653165 0.443271
vt 0.569620 0.491506
vt 0.625316 0.491506
vt 0.402531 0.491506
vt 0.458228 0.491506
vt 0.513924 0.491506
vt 0.597468 0.346801
vt 0.569620 0.395036
vt 0.625316 0.395036
vt 0.541772 0.346801
vt 0.513924 0.395036
vt 0.374683 0.346801
vt 0.346835 0.395036
vt 0.402531 0.395036
vt 0.430380 0.346801
vt 0.458228 0.395036
vt 0.486076 0.346801
vt 0.541772 0.443271
vt 0.597468 0.443271
vt 0.374683 0.443271
vt 0.430380 0.443271
vt 0.486076 0.443271
vt 0.653165 0.443271
vt 0.569620 0.491506
vt 0.625316 0.491506
vt 0.402531 0.491506
vt 0.458228 0.491506
vt 0.513924 0.491506
vn 0.5878 0.0000 -0.8090
vn 0.9511 0.0000 0.3090
vn -0.0000 0.0000 1.0000
vn -0.0000 0.1240 0.9923
vn -0.9511 0.0000 0.3090
vn -0.5878 0.0000 -0.8090
vn 0.0000 -1.0000 0.0000
vn -0.4591 -0.6245 -0.6319
vn -0.9503 0.0386 0.3088
vn 0.9503 0.0386 0.3088
vn -0.5848 -0.1006 -0.8049
vn 0.5848 -0.1006 -0.8049
vn 0.0000 1.0000 -0.0000
vn -0.0000 0.7030 0.7112
vn 0.4591 -0.6245 -0.6319
vn -0.9096 0.2921 0.2955
vn 0.9096 0.2921 0.2955
vn 0.3090 -0.8507 0.4253
vn 0.0000 0.8944 -0.4472
vn -0.3090 -0.8507 0.4253
vn 0.8090 0.5257 -0.2629
vn -0.8090 0.5257 -0.2629
vn 0.4570 -0.6290 0.6290
vn 0.0000 0.7071 -0.7071
vn -0.4570 -0.6290 0.6290
vn 0.9087 0.2952 -0.2952
vn -0.9087 0.2952 -0.2952
vn 0.1876 0.5774 0.7947
vn 0.6071 -0.0000 0.7947
vn -0.4911 0.3568 0.7947
vn -0.4911 -0.3568 0.7947
vn 0.1876 -0.5774 0.7947
vn 0.9822 -0.0000 0.1876
vn 0.3035 0.9342 0.1876
vn -0.7946 0.5774 0.1876
vn -0.7946 -0.5774 0.1876
vn 0.3035 -0.9342 0.1876
vn 0.7946 0.5774 -0.1876
vn -0.3035 0.9342 -0.1876
vn -0.9822 -0.0000 -0.1876
vn -0.3035 -0.9342 -0.1876
vn 0.7946 -0.5774 -0.1876
vn 0.4911 0.3568 -0.7947
vn -0.1876 0.5774 -0.7947
vn -0.6071 0.0000 -0.7947
vn -0.1876 -0.5774 -0.7947
vn 0.4911 -0.3568 -0.7947
vn -0.8248 -0.1911 0.5322
vn -0.7338 0.5115 0.4470
vn -0.2454 -0.4506 0.8583
vn 0.2035 0.0918 0.9748
vn -0.0983 0.6864 0.7205
vn -0.7178 0.6486 -0.2532
vn -0.8650 -0.4884 -0.1154
vn 0.0724 -0.9081 0.4124
vn 0.7989 -0.0306 0.6007
vn 0.3105 0.9315 0.1894
vn -0.7989 0.0306 -0.6007
vn -0.3105 -0.9315 -0.1894
vn 0.7178 -0.6486 0.2532
vn 0.8650 0.4884 0.1154
vn -0.0724 0.9081 -0.4124
vn -0.2035 -0.0918 -0.9748
vn 0.0983 -0.6864 -0.7205
vn 0.7338 -0.5115 -0.4470
vn 0.8248 0.1911 -0.5322
vn 0.2454 0.4506 -0.8583
usemtl Material.001
s off
f 1/1/1 2/2/1 4/3/1 3/4/1
f 3/4/2 4/3/2 6/5/2 5/6/2
f 5/6/3 6/5/3 8/7/3 7/8/3
f 8/7/4 6/5/4 13/9/4 14/10/4
f 7/8/5 8/7/5 10/11/5 9/12/5
f 9/12/6 10/11/6 2/13/6 1/14/6
f 1/15/7 3/16/7 5/17/7 7/18/7 9/19/7
f 12/20/8 15/21/8 20/22/8 17/23/8
f 10/11/9 8/7/9 14/10/9 15/21/9
f 6/5/10 4/3/10 11/24/10 13/9/10
f 2/13/11 10/11/11 15/21/11 12/20/11
f 4/3/12 2/2/12 12/25/12 11/24/12
f 16/26/13 17/27/13 20/28/13 19/29/13 18/30/13
f 14/10/14 13/9/14 18/31/14 19/32/14
f 11/24/15 12/25/15 17/33/15 16/34/15
f 15/21/16 14/10/16 19/32/16 20/22/16
f 13/9/17 11/24/17 16/34/17 18/31/17
f 15/21/18 12/20/18 22/35/18 25/36/18
f 13/9/19 14/10/19 24/37/19 23/38/19
f 12/25/20 11/24/20 21/39/20 22/40/20
f 14/10/21 15/21/21 25/36/21 24/37/21
f 11/24/22 13/9/22 23/38/22 21/39/22
f 25/36/23 22/35/23 27/41/23 30/42/23
f 23/43/24 24/44/24 29/45/24 28/46/24
f 22/40/25 21/39/25 26/47/25 27/48/25
f 24/37/26 25/36/26 30/42/26 29/49/26
f 21/39/27 23/38/27 28/50/27 26/47/27
f 31/51/7 33/52/7 34/53/7 35/54/7 32/55/7
f 36/56/28 37/57/28 38/58/28
f 37/57/29 36/59/29 41/60/29
f 36/61/30 38/62/30 39/63/30
f 36/64/31 39/63/31 40/65/31
f 36/66/32 40/65/32 41/60/32
f 37/57/33 41/60/33 46/67/33
f 38/58/34 37/57/34 42/68/34
f 39/63/35 38/62/35 43/69/35
f 40/65/36 39/63/36 44/70/36
f 41/60/37 40/65/37 45/71/37
f 37/57/38 46/67/38 42/68/38
f 38/58/39 42/68/39 43/72/39
f 39/63/40 43/69/40 44/70/40
f 40/65/41 44/70/41 45/71/41
f 41/60/42 45/71/42 46/67/42
f 42/68/43 46/67/43 47/73/43
f 43/72/44 42/68/44 47/74/44
f 44/70/45 43/69/45 47/75/45
f 45/71/46 44/70/46 47/76/46
f 46/67/47 45/71/47 47/77/47
f 48/78/48 49/79/48 50/80/48
f 49/79/49 48/81/49 53/82/49
f 48/83/50 50/84/50 51/85/50
f 48/86/51 51/85/51 52/87/51
f 48/88/52 52/87/52 53/82/52
f 49/79/53 53/82/53 58/89/53
f 50/80/54 49/79/54 54/90/54
f 51/85/55 50/84/55 55/91/55
f 52/87/56 51/85/56 56/92/56
f 53/82/57 52/87/57 57/93/57
f 49/79/58 58/89/58 54/90/58
f 50/80/59 54/90/59 55/94/59
f 51/85/60 55/91/60 56/92/60
f 52/87/61 56/92/61 57/93/61
f 53/82/62 57/93/62 58/89/62
f 54/90/63 58/89/63 59/95/63
f 55/94/64 54/90/64 59/96/64
f 56/92/65 55/91/65 59/97/65
f 57/93/66 56/92/66 59/98/66
f 58/89/67 57/93/67 59/99/67
