# Blender v2.80 (sub 75) OBJ File: 'Umbrella.blend'
# www.blender.org
mtllib Umbrella.mtl
o Cylinder
v 0.000000 0.000000 -0.100000
v 0.000000 5.000000 -0.100000
v 0.086603 0.000000 -0.050000
v 0.086603 5.000000 -0.050000
v 0.086603 0.000000 0.050000
v 0.086603 5.000000 0.050000
v -0.000000 0.000000 0.100000
v -0.000000 5.000000 0.100000
v -0.086603 0.000000 0.050000
v -0.086603 5.000000 0.050000
v -0.086603 0.000000 -0.050000
v -0.086603 5.000000 -0.050000
v 0.000000 4.522106 -1.600000
v 1.385641 4.522106 -0.800000
v 1.385641 4.522106 0.800000
v -0.000000 4.522106 1.600000
v 0.000000 5.322105 -0.000000
v -1.385641 4.522106 0.800000
v -1.385641 4.522106 -0.800000
v 0.000000 3.722105 -2.880001
v 2.494154 3.722105 -1.440000
v 2.494154 3.722105 1.440001
v -0.000000 3.722105 2.880001
v -2.494154 3.722105 1.440000
v -2.494154 3.722105 -1.440000
v -0.000000 5.002106 -0.000000
v 0.000000 5.002106 -0.000000
v 0.000000 5.002106 -0.000000
v -0.000000 5.002106 -0.000000
v 0.000000 5.002106 -0.000000
v 0.000000 5.002106 -0.000000
vt 0.740000 0.612175
vt 0.740000 0.831825
vt 0.743804 0.831825
vt 0.743804 0.612175
vt 0.742196 0.612175
vt 0.742196 0.831825
vt 0.737803 0.831825
vt 0.737803 0.612175
vt 0.743804 0.612175
vt 0.743804 0.831825
vt 0.740000 0.831825
vt 0.740000 0.612175
vt 0.736196 0.831825
vt 0.736196 0.612175
vt 0.743804 0.724196
vt 0.740000 0.726393
vt 0.736196 0.724196
vt 0.736196 0.719803
vt 0.740000 0.717607
vt 0.743804 0.719803
vt 0.737803 0.612175
vt 0.737803 0.831825
vt 0.742196 0.831825
vt 0.742196 0.612175
vt 0.736196 0.612175
vt 0.736196 0.831825
vt 0.740000 0.726393
vt 0.743804 0.724196
vt 0.743804 0.719803
vt 0.740000 0.717607
vt 0.736196 0.719803
vt 0.736196 0.724196
vt 0.360818 0.687448
vt 0.425609 0.638855
vt 0.425609 0.719843
vt 0.557722 0.196661
vt 0.558422 0.090441
vt 0.642978 0.154733
vt 0.070391 0.719841
vt 0.070925 0.638855
vt 0.135393 0.687873
vt 0.247096 0.196661
vt 0.247796 0.090441
vt 0.332352 0.154733
vt 0.188808 0.719841
vt 0.189341 0.638855
vt 0.253810 0.687873
vt 0.402409 0.196661
vt 0.403108 0.090441
vt 0.487665 0.154733
vt 0.188708 0.730624
vt 0.071704 0.788166
vt 0.190120 0.788166
vt 0.307124 0.730624
vt 0.307124 0.873330
vt 0.304634 0.873288
vt 0.712904 0.210805
vt 0.559443 0.286276
vt 0.402277 0.210804
vt 0.248817 0.286275
vt 0.557591 0.210804
vt 0.404130 0.286276
vt 0.423847 0.788158
vt 0.307224 0.729847
vt 0.750000 0.490000
vt 0.957846 0.370000
vt 0.957846 0.130000
vt 0.750000 0.010000
vt 0.542154 0.130000
vt 0.542154 0.370000
vt 0.188708 0.873331
vt 0.186218 0.873288
vt 0.312846 0.872625
vt 0.308774 0.872524
vt 0.557591 0.397977
vt 0.554325 0.397921
vt 0.402277 0.398067
vt 0.399011 0.397920
vt 0.712904 0.397950
vt 0.709638 0.397921
vn 0.5000 0.0000 -0.8660
vn 1.0000 0.0000 0.0000
vn 0.5000 0.0000 0.8660
vn -0.5000 0.0000 0.8660
vn 0.0000 1.0000 -0.0000
vn -1.0000 0.0000 0.0000
vn -0.5000 0.0000 -0.8660
vn 0.0000 -1.0000 0.0000
vn 0.2500 0.8660 -0.4330
vn 0.5000 0.8660 0.0000
vn 0.2500 0.8660 0.4330
vn -0.2500 0.8660 0.4330
vn -0.5000 0.8660 0.0000
vn -0.2500 0.8660 -0.4330
vn 0.2926 0.8109 0.5068
vn 0.4566 -0.8897 0.0000
vn 0.5852 0.8109 0.0000
vn -0.5852 0.8109 0.0000
vn -0.2926 0.8109 0.5068
vn -0.2926 0.8109 -0.5068
vn 0.2926 0.8109 -0.5068
vn 0.0000 0.0000 1.0000
vn -0.2283 -0.8897 -0.3954
vn -0.2283 -0.8897 0.3954
vn 0.2283 -0.8897 0.3954
vn 0.2283 -0.8897 -0.3954
vn -0.4566 -0.8897 0.0000
usemtl Material.004
s off
f 1/1/1 2/2/1 4/3/1 3/4/1
f 3/5/2 4/6/2 6/7/2 5/8/2
f 5/9/3 6/10/3 8/11/3 7/12/3
f 7/12/4 8/11/4 10/13/4 9/14/4
f 4/15/5 2/16/5 12/17/5 10/18/5 8/19/5 6/20/5
f 9/21/6 10/22/6 12/23/6 11/24/6
f 11/25/7 12/26/7 2/2/7 1/1/7
f 1/27/8 3/28/8 5/29/8 7/30/8 9/31/8 11/32/8
f 13/33/9 17/34/9 14/35/9
f 14/36/10 17/37/10 15/38/10
f 15/39/11 17/40/11 16/41/11
f 16/42/12 17/43/12 18/44/12
f 18/45/13 17/46/13 19/47/13
f 19/48/14 17/49/14 13/50/14
f 15/39/15 16/41/15 23/51/15 22/52/15
f 24/53/16 25/54/16 31/55/16 30/56/16
f 14/36/17 15/38/17 22/57/17 21/58/17
f 18/45/18 19/47/18 25/54/18 24/53/18
f 16/42/19 18/44/19 24/59/19 23/60/19
f 19/48/20 13/50/20 20/61/20 25/62/20
f 13/33/21 14/35/21 21/63/21 20/64/21
f 26/65/22 27/66/22 28/67/22 29/68/22 30/69/22 31/70/22
f 22/52/23 23/51/23 29/71/23 28/72/23
f 20/64/24 21/63/24 27/73/24 26/74/24
f 25/62/25 20/61/25 26/75/25 31/76/25
f 23/60/26 24/59/26 30/77/26 29/78/26
f 21/58/27 22/57/27 28/79/27 27/80/27
