# Blender v2.81 (sub 16) OBJ File: 'beach.blend'
# www.blender.org
mtllib beach.mtl
o Plane
v -10.000000 0.000000 32.000000
v 0.000000 -1.000000 32.000000
v -10.000000 0.000000 -32.000000
v 0.000000 -1.000000 -32.000000
v -30.000000 0.000000 32.000000
v -30.000000 0.000000 -32.000000
v 5.000000 -2.000000 32.000000
v 5.000000 -2.000000 -32.000000
v 10.000000 -3.000000 32.000000
v 10.000000 -3.000000 -32.000000
v 15.000000 -4.000000 32.000000
v 15.000000 -4.000000 -32.000000
v 20.000000 -5.000000 32.000000
v 20.000000 -5.000000 -32.000000
v -50.000000 0.000000 32.000000
v -50.000000 0.000000 -32.000000
vt 0.000000 0.000000
vt 1.000000 0.000000
vt 1.000000 1.000000
vt 0.000000 1.000000
vt 0.000000 1.000000
vt 0.000000 0.000000
vt 1.000000 0.000000
vt 1.000000 1.000000
vt 1.000000 0.000000
vt 1.000000 1.000000
vt 1.000000 0.000000
vt 1.000000 1.000000
vt 1.000000 0.000000
vt 1.000000 1.000000
vt 0.000000 1.000000
vt 0.000000 0.000000
vn 0.0498 0.9987 0.0000
vn 0.1480 0.9890 0.0000
vn 0.0000 1.0000 0.0000
vn 0.1961 0.9806 0.0000
usemtl None
s 1
f 1/1/1 2/2/2 4/3/2 3/4/1
f 1/1/1 3/4/1 6/5/3 5/6/3
f 4/3/2 2/2/2 7/7/4 8/8/4
f 8/8/4 7/7/4 9/9/4 10/10/4
f 10/10/4 9/9/4 11/11/4 12/12/4
f 12/12/4 11/11/4 13/13/4 14/14/4
f 5/6/3 6/5/3 16/15/3 15/16/3
